<svg xmlns="http://www.w3.org/2000/svg" width="1em" height="1em" viewBox="0 0 32 32"><!-- Icon from Pixel free icons by Streamline - https://creativecommons.org/licenses/by/4.0/ --><path fill="currentColor" d="M30.48 12.955h-1.53v4.57h-3.04v1.53h3.04v1.52h-3.04v1.52h3.04v1.53h1.53v-1.53H32v-1.52h-1.52v-1.52H32v-1.53h-1.52zm-3.05 10.67h1.52v1.52h-1.52Zm0-13.72h1.52v3.05h-1.52Zm-1.52 15.24h1.52v1.53h-1.52Zm0-18.28h1.52v3.04h-1.52Zm-1.53-3.05h1.53v3.05h-1.53Zm-1.52 22.86h3.05v1.52h-3.05Zm0-4.58h1.52v1.53h-1.52Zm0-3.04h1.52v1.52h-1.52Zm0-16.77h1.52v1.53h-1.52Zm-1.52 1.53h1.52v1.52h-1.52ZM9.15 28.195h13.71v1.52H9.15Zm10.66-19.81h1.53v3.05h-1.53Zm0-3.05h1.53v1.53h-1.53Zm-1.52 9.14h1.52v1.53h-1.52Zm-1.53 7.62h1.53v1.53h-1.53Zm-4.57-4.57v1.53h1.53v1.52h3.04v-1.52h1.53v-1.53zm1.53 6.1h3.04v1.52h-3.04Zm1.52-15.24v3.05h1.52v-3.05h3.05v-1.52h-7.62v1.52zm-4.57 6.09h1.52v1.53h-1.52Zm0-6.09h1.52v3.05h-1.52Zm0-3.05h1.52v1.53h-1.52Zm-1.52-1.52h1.52v1.52H9.15ZM6.1 26.675h3.05v1.52H6.1Zm1.52-4.58h1.53v1.53H7.62Zm0-3.04h1.53v1.52H7.62Zm0-16.77h1.53v1.53H7.62ZM6.1 3.815h1.52v3.05H6.1Zm-1.53 21.33H6.1v1.53H4.57Zm0-18.28H6.1v3.04H4.57Zm-1.52 16.76h1.52v1.52H3.05Zm3.05-1.53v-1.52H3.05v-1.52H6.1v-1.53H3.05v-4.57H1.53v4.57H0v1.53h1.53v1.52H0v1.52h1.53v1.53h1.52v-1.53zM3.05 9.905h1.52v3.05H3.05Z"/></svg>